<svg viewBox="0 0 360 400" fill="none" xmlns="http://www.w3.org/2000/svg">
  <path d="M180 40 C 180 40, 80 100, 80 220 C 80 300, 120 340, 180 360 C 240 340, 280 300, 280 220 C 280 100, 180 40, 180 40Z" fill="#C47B5A" opacity="0.15"/>
  <path d="M180 40 C 180 40, 100 120, 100 220 C 100 280, 130 320, 180 340 C 130 320, 105 280, 105 220 C 105 120, 180 40, 180 40Z" fill="#C47B5A" opacity="0.25"/>
  <line x1="180" y1="360" x2="180" y2="400" stroke="#C47B5A" stroke-width="2" stroke-linecap="round"/>
  <line x1="180" y1="80" x2="180" y2="340" stroke="#C47B5A" stroke-width="1" opacity="0.4"/>
  <line x1="180" y1="140" x2="130" y2="180" stroke="#C47B5A" stroke-width="0.8" opacity="0.3"/>
  <line x1="180" y1="140" x2="230" y2="180" stroke="#C47B5A" stroke-width="0.8" opacity="0.3"/>
  <line x1="180" y1="200" x2="120" y2="250" stroke="#C47B5A" stroke-width="0.8" opacity="0.3"/>
  <line x1="180" y1="200" x2="240" y2="250" stroke="#C47B5A" stroke-width="0.8" opacity="0.3"/>
  <line x1="180" y1="260" x2="140" y2="300" stroke="#C47B5A" stroke-width="0.8" opacity="0.3"/>
  <line x1="180" y1="260" x2="220" y2="300" stroke="#C47B5A" stroke-width="0.8" opacity="0.3"/>
  <circle cx="80" cy="120" r="25" stroke="#E8DFC9" stroke-width="0.8" fill="none" opacity="0.5"/>
  <circle cx="300" cy="300" r="30" stroke="#E8DFC9" stroke-width="0.8" fill="none" opacity="0.4"/>
  <circle cx="80" cy="340" r="4" fill="#C47B5A" opacity="0.5"/>
  <circle cx="300" cy="100" r="5" fill="#C47B5A" opacity="0.4"/>
</svg>
