<svg viewBox="0 0 400 480" fill="none" xmlns="http://www.w3.org/2000/svg">
  <defs>
    <linearGradient id="spoolGrad" x1="0%" y1="0%" x2="100%" y2="100%">
      <stop offset="0%" stop-color="#C47B5A"/>
      <stop offset="100%" stop-color="#9B5B3C"/>
    </linearGradient>
    <linearGradient id="filamentGrad" x1="0%" y1="0%" x2="0%" y2="100%">
      <stop offset="0%" stop-color="#E8DFC9"/>
      <stop offset="100%" stop-color="#C47B5A"/>
    </linearGradient>
  </defs>
  <rect x="120" y="80" width="160" height="200" rx="8" fill="url(#spoolGrad)" opacity="0.9"/>
  <ellipse cx="200" cy="80" rx="80" ry="18" fill="#C47B5A"/>
  <ellipse cx="200" cy="280" rx="80" ry="18" fill="#9B5B3C"/>
  <ellipse cx="200" cy="80" rx="20" ry="6" fill="#F7F2EA"/>
  <ellipse cx="200" cy="280" rx="20" ry="6" fill="#F7F2EA"/>
  <line x1="140" y1="110" x2="260" y2="110" stroke="#B06A48" stroke-width="0.8" opacity="0.5"/>
  <line x1="135" y1="130" x2="265" y2="130" stroke="#B06A48" stroke-width="0.8" opacity="0.5"/>
  <line x1="130" y1="150" x2="270" y2="150" stroke="#B06A48" stroke-width="0.8" opacity="0.5"/>
  <line x1="128" y1="170" x2="272" y2="170" stroke="#B06A48" stroke-width="0.8" opacity="0.5"/>
  <line x1="130" y1="190" x2="270" y2="190" stroke="#B06A48" stroke-width="0.8" opacity="0.5"/>
  <line x1="135" y1="210" x2="265" y2="210" stroke="#B06A48" stroke-width="0.8" opacity="0.5"/>
  <line x1="140" y1="230" x2="260" y2="230" stroke="#B06A48" stroke-width="0.8" opacity="0.5"/>
  <line x1="150" y1="250" x2="250" y2="250" stroke="#B06A48" stroke-width="0.8" opacity="0.5"/>
  <path d="M200 298 Q 200 340, 180 380 T 160 440" stroke="#C47B5A" stroke-width="2.5" fill="none" stroke-linecap="round"/>
  <path d="M220 298 Q 230 340, 250 370 T 280 420" stroke="#C47B5A" stroke-width="2" fill="none" stroke-linecap="round" opacity="0.6"/>
  <path d="M160 440 Q 140 460, 120 450 Q 100 440, 110 420 Q 130 400, 160 410 Q 190 420, 200 440 Q 210 460, 180 470" stroke="#C47B5A" stroke-width="2" fill="none" stroke-linecap="round" opacity="0.7"/>
  <line x1="120" y1="420" x2="180" y2="430" stroke="#C47B5A" stroke-width="1" opacity="0.4"/>
  <line x1="115" y1="430" x2="175" y2="440" stroke="#C47B5A" stroke-width="1" opacity="0.4"/>
  <line x1="125" y1="440" x2="185" y2="450" stroke="#C47B5A" stroke-width="1" opacity="0.4"/>
  <circle cx="80" cy="200" r="30" stroke="#E8DFC9" stroke-width="0.8" fill="none" opacity="0.5"/>
  <circle cx="80" cy="200" r="45" stroke="#E8DFC9" stroke-width="0.5" fill="none" opacity="0.3"/>
  <circle cx="340" cy="340" r="40" stroke="#E8DFC9" stroke-width="0.8" fill="none" opacity="0.4"/>
  <circle cx="340" cy="340" r="60" stroke="#E8DFC9" stroke-width="0.5" fill="none" opacity="0.2"/>
  <circle cx="100" cy="150" r="4" fill="#C47B5A" opacity="0.6"/>
  <circle cx="340" cy="120" r="5" fill="#C47B5A" opacity="0.4"/>
  <circle cx="320" cy="420" r="3" fill="#C47B5A" opacity="0.5"/>
</svg>
